<svg width="381" height="355" viewBox="0 0 381 355" fill="none" xmlns="http://www.w3.org/2000/svg">
<g opacity="0.1">
<path d="M35.9301 286.743L27.3798 280.861C27.3798 280.861 22.4411 288.039 14.8963 283.034C10.9791 280.435 10.7136 276.516 11.2365 274.005C11.8397 271.092 13.8989 268.718 16.6095 267.495C19.7063 266.103 24.3796 266.111 29.439 271.092L42.7027 251.812L34.249 245.994L26.4789 257.292C26.4789 257.292 12.5154 252.198 3.53076 265.266C-5.06777 277.771 4.14207 288.393 8.94406 291.692C12.6039 294.219 25.7148 301.936 35.9301 286.743Z" fill="#EBEBEB"/>
<path d="M36.8778 241.967L45.4521 247.869L50.9641 239.855L42.3897 233.953L36.8778 241.967Z" fill="#EBEBEB"/>
</g>
<g opacity="0.1">
<path d="M72.3757 310.394L76.9123 309.195C76.9123 309.195 75.9069 305.38 79.8482 304.27C81.8993 303.69 83.3149 304.761 84.0228 305.678C84.8432 306.748 85.0523 308.148 84.6663 309.444C84.2319 310.917 82.8484 312.518 79.6471 312.783L82.3497 323.019L86.838 321.836L85.2534 315.841C85.2534 315.841 91.1172 312.55 89.2913 305.614C87.5378 298.975 81.1834 298.999 78.6336 299.675C76.6951 300.182 70.1799 302.403 72.3757 310.394Z" fill="#EBEBEB"/>
<path d="M87.4667 323.918L82.9092 325.121L84.0316 329.377L88.5891 328.174L87.4667 323.918Z" fill="#EBEBEB"/>
</g>
<g opacity="0.1">
<path d="M87.6919 40.2411C89.7085 39.0195 91.8577 38.098 94.0696 37.4698L95.3815 31.1522L106.051 30.9637L107.586 37.2324C109.819 37.7839 112.003 38.6356 114.061 39.7804L119.455 36.2412L127.13 43.6547L123.788 49.1696C125.009 51.187 125.93 53.3371 126.558 55.557L132.873 56.8694L133.062 67.543L126.796 69.0788C126.244 71.3126 125.393 73.4976 124.249 75.5569L127.779 80.9531L120.369 88.6319L114.857 85.2881C112.84 86.5098 110.691 87.4312 108.479 88.0595L107.167 94.3771L96.4979 94.5656L94.9628 88.2969C92.7299 87.7454 90.5458 86.8937 88.4874 85.7489L83.0935 89.2881L75.418 81.8745L78.7603 76.3597C77.5392 74.3423 76.6181 72.1922 75.9901 69.9793L69.6752 68.6669L69.4868 57.9933L75.7529 56.4575C76.3041 54.2237 77.1554 52.0387 78.2998 49.9793L74.762 44.5832L82.1725 36.9043L87.6919 40.2411ZM93.3788 54.461C88.9898 59.0125 89.1154 66.2585 93.6649 70.6564C98.2144 75.0473 105.457 74.9217 109.853 70.3702C114.242 65.8187 114.117 58.5727 109.567 54.1748C105.018 49.7839 97.7679 49.9095 93.3788 54.461Z" fill="#F5F5F5"/>
</g>
<g opacity="0.1">
<path d="M43.0062 17.9933C44.1715 17.2883 45.4066 16.7577 46.6835 16.3947L47.4371 12.7577L53.5845 12.6461L54.4707 16.2551C55.7616 16.5693 57.0107 17.0649 58.1969 17.7211L61.302 15.6827L65.7259 19.9549L63.8001 23.1312C64.5048 24.297 65.0351 25.5326 65.398 26.8101L69.0334 27.564L69.1381 33.7141L65.5306 34.6006C65.2166 35.8921 64.7211 37.1416 64.0652 38.3284L66.1027 41.4348L61.8323 45.8606L58.6574 43.9339C57.4921 44.639 56.257 45.1695 54.9801 45.5325L54.2195 49.1695L48.0721 49.2742L47.1859 45.6652C45.895 45.351 44.646 44.8554 43.4598 44.1992L40.3546 46.2376L35.9307 41.9653L37.8566 38.7891C37.1518 37.6233 36.6215 36.3877 36.2587 35.1102L32.6232 34.3563L32.5186 28.2062L36.1261 27.3197C36.4401 26.0282 36.9355 24.7787 37.5914 23.5919L35.5539 20.4855L39.8243 16.0597L43.0062 17.9933ZM46.2858 26.1818C43.7598 28.7996 43.8296 32.9811 46.4463 35.5081C49.0629 38.0352 53.2426 37.9654 55.7686 35.3406C58.2946 32.7228 58.2248 28.5413 55.6081 26.0143C52.9845 23.4872 48.8117 23.557 46.2858 26.1818Z" fill="#EBEBEB"/>
</g>
<rect x="105.685" width="177.045" height="339.638" rx="23.4856" fill="#05ADA3"/>
<path d="M110.363 87.9277C109.203 87.9277 108.263 86.9886 108.263 85.8301V64.47C108.263 63.3115 109.203 62.3724 110.363 62.3724C111.522 62.3724 112.462 63.3115 112.462 64.47V85.8301C112.462 86.9886 111.522 87.9277 110.363 87.9277Z" fill="white"/>
<path d="M110.363 135.117C109.203 135.117 108.263 134.178 108.263 133.019V97.3595C108.263 96.201 109.203 95.262 110.363 95.262C111.522 95.262 112.462 96.201 112.462 97.3595V133.019C112.462 134.178 111.522 135.117 110.363 135.117Z" fill="white"/>
<path d="M260.643 333.742H135.518C126.397 333.742 119.003 326.354 119.003 317.242V22.4038C119.003 13.2906 126.398 5.90393 135.518 5.90393H260.643C269.764 5.90393 277.158 13.2917 277.158 22.4038V317.241C277.158 326.354 269.763 333.742 260.643 333.742Z" fill="white"/>
<path d="M144.392 57.7079C145.015 57.7079 145.469 57.6025 145.753 57.3917C146.037 57.1809 146.179 56.8831 146.179 56.4982C146.179 56.2691 146.128 56.0721 146.028 55.9071C145.936 55.7422 145.798 55.5955 145.615 55.4673C145.441 55.3298 145.226 55.2061 144.969 55.0961C144.713 54.977 144.419 54.8624 144.089 54.7525C143.759 54.6333 143.439 54.505 143.127 54.3676C142.825 54.2209 142.554 54.0422 142.316 53.8315C142.087 53.6207 141.899 53.3687 141.753 53.0754C141.615 52.7822 141.546 52.4294 141.546 52.017C141.546 51.1556 141.844 50.482 142.44 49.9963C143.036 49.5014 143.847 49.254 144.873 49.254C145.469 49.254 145.996 49.3227 146.454 49.4602C146.921 49.5885 147.288 49.7305 147.553 49.8863L147.017 51.2884C146.706 51.1143 146.362 50.9814 145.986 50.8898C145.62 50.7982 145.239 50.7523 144.845 50.7523C144.378 50.7523 144.011 50.8486 143.746 51.041C143.489 51.2335 143.361 51.5038 143.361 51.852C143.361 52.0628 143.402 52.2461 143.485 52.4019C143.576 52.5485 143.7 52.6814 143.856 52.8005C144.021 52.9196 144.209 53.0296 144.419 53.1304C144.639 53.2312 144.878 53.3274 145.134 53.4191C145.583 53.584 145.982 53.7536 146.33 53.9277C146.687 54.0926 146.985 54.2943 147.224 54.5325C147.471 54.7616 147.659 55.0365 147.787 55.3573C147.915 55.6689 147.98 56.0492 147.98 56.4982C147.98 57.3596 147.673 58.0286 147.059 58.5051C146.454 58.9725 145.565 59.2062 144.392 59.2062C143.998 59.2062 143.636 59.1787 143.306 59.1237C142.985 59.0779 142.696 59.0183 142.44 58.945C142.192 58.8717 141.977 58.7984 141.794 58.7251C141.611 58.6426 141.464 58.5693 141.354 58.5051L141.863 57.0893C142.11 57.2268 142.444 57.3642 142.866 57.5017C143.288 57.6391 143.796 57.7079 144.392 57.7079ZM155.32 58.7801C155 58.8625 154.583 58.945 154.07 59.0275C153.556 59.1191 152.993 59.165 152.379 59.165C151.801 59.165 151.316 59.0825 150.922 58.9175C150.537 58.7526 150.225 58.5235 149.987 58.2302C149.758 57.937 149.593 57.5887 149.492 57.1855C149.391 56.7731 149.341 56.3241 149.341 55.8384V51.8108H151.004V55.5772C151.004 56.347 151.114 56.8968 151.334 57.2268C151.563 57.5567 151.957 57.7216 152.516 57.7216C152.718 57.7216 152.929 57.7124 153.149 57.6941C153.378 57.6758 153.547 57.6529 153.657 57.6254V51.8108H155.32V58.7801ZM161.534 55.2198C161.534 54.4684 161.438 53.9277 161.245 53.5978C161.062 53.2587 160.714 53.0892 160.2 53.0892C160.017 53.0892 159.816 53.1029 159.596 53.1304C159.376 53.1579 159.211 53.1808 159.101 53.1991V59H157.437V52.0445C157.758 51.9528 158.175 51.8658 158.688 51.7833C159.211 51.7008 159.761 51.6596 160.338 51.6596C160.833 51.6596 161.236 51.7237 161.548 51.852C161.868 51.9803 162.134 52.1499 162.345 52.3606C162.446 52.2873 162.574 52.2094 162.73 52.127C162.886 52.0445 163.06 51.9712 163.252 51.907C163.445 51.8337 163.646 51.7741 163.857 51.7283C164.077 51.6825 164.297 51.6596 164.517 51.6596C165.076 51.6596 165.534 51.7421 165.891 51.907C166.258 52.0628 166.542 52.2873 166.744 52.5806C166.954 52.8647 167.096 53.2129 167.17 53.6253C167.252 54.0285 167.293 54.473 167.293 54.9586V59H165.63V55.2198C165.63 54.4684 165.539 53.9277 165.355 53.5978C165.172 53.2587 164.819 53.0892 164.297 53.0892C164.031 53.0892 163.779 53.135 163.541 53.2266C163.302 53.3091 163.124 53.3916 163.005 53.4741C163.078 53.7032 163.128 53.946 163.156 54.2026C163.183 54.4592 163.197 54.7341 163.197 55.0274V59H161.534V55.2198ZM173.427 55.2198C173.427 54.4684 173.331 53.9277 173.139 53.5978C172.955 53.2587 172.607 53.0892 172.094 53.0892C171.911 53.0892 171.709 53.1029 171.489 53.1304C171.269 53.1579 171.104 53.1808 170.994 53.1991V59H169.331V52.0445C169.652 51.9528 170.069 51.8658 170.582 51.7833C171.104 51.7008 171.654 51.6596 172.232 51.6596C172.726 51.6596 173.13 51.7237 173.441 51.852C173.762 51.9803 174.028 52.1499 174.238 52.3606C174.339 52.2873 174.468 52.2094 174.623 52.127C174.779 52.0445 174.953 51.9712 175.146 51.907C175.338 51.8337 175.54 51.7741 175.751 51.7283C175.97 51.6825 176.19 51.6596 176.41 51.6596C176.969 51.6596 177.428 51.7421 177.785 51.907C178.152 52.0628 178.436 52.2873 178.637 52.5806C178.848 52.8647 178.99 53.2129 179.063 53.6253C179.146 54.0285 179.187 54.473 179.187 54.9586V59H177.524V55.2198C177.524 54.4684 177.432 53.9277 177.249 53.5978C177.066 53.2587 176.713 53.0892 176.19 53.0892C175.925 53.0892 175.673 53.135 175.434 53.2266C175.196 53.3091 175.017 53.3916 174.898 53.4741C174.972 53.7032 175.022 53.946 175.049 54.2026C175.077 54.4592 175.091 54.7341 175.091 55.0274V59H173.427V55.2198ZM183.754 57.8316C184.267 57.8316 184.657 57.8041 184.922 57.7491V55.9071C184.831 55.8796 184.698 55.8521 184.524 55.8247C184.35 55.7972 184.157 55.7834 183.946 55.7834C183.763 55.7834 183.575 55.7972 183.383 55.8247C183.2 55.8521 183.03 55.9025 182.874 55.9759C182.728 56.0492 182.608 56.1546 182.517 56.292C182.425 56.4203 182.379 56.5853 182.379 56.7869C182.379 57.1809 182.503 57.4559 182.751 57.6116C182.998 57.7583 183.332 57.8316 183.754 57.8316ZM183.617 51.6321C184.166 51.6321 184.629 51.7008 185.005 51.8383C185.381 51.9757 185.678 52.1682 185.898 52.4156C186.127 52.663 186.288 52.9655 186.379 53.3229C186.48 53.6711 186.531 54.056 186.531 54.4775V58.835C186.274 58.89 185.885 58.9542 185.362 59.0275C184.849 59.11 184.267 59.1512 183.617 59.1512C183.186 59.1512 182.792 59.11 182.434 59.0275C182.077 58.945 181.77 58.8121 181.513 58.6289C181.266 58.4456 181.069 58.2073 180.922 57.9141C180.785 57.6208 180.716 57.2588 180.716 56.8281C180.716 56.4157 180.794 56.0675 180.95 55.7834C181.115 55.4993 181.335 55.2702 181.61 55.0961C181.884 54.9128 182.201 54.7845 182.558 54.7112C182.925 54.6287 183.305 54.5875 183.699 54.5875C183.882 54.5875 184.075 54.6012 184.276 54.6287C184.478 54.6471 184.693 54.6837 184.922 54.7387V54.4638C184.922 54.2713 184.899 54.0881 184.854 53.9139C184.808 53.7398 184.725 53.5886 184.606 53.4603C184.496 53.3229 184.345 53.2175 184.153 53.1442C183.969 53.0709 183.736 53.0342 183.452 53.0342C183.067 53.0342 182.714 53.0617 182.393 53.1167C182.072 53.1717 181.811 53.2358 181.61 53.3091L181.403 51.962C181.614 51.8887 181.921 51.8154 182.324 51.7421C182.728 51.6687 183.158 51.6321 183.617 51.6321ZM192.664 53.3091C192.526 53.2633 192.334 53.2175 192.087 53.1717C191.848 53.1167 191.569 53.0892 191.248 53.0892C191.065 53.0892 190.868 53.1075 190.657 53.1442C190.455 53.1808 190.313 53.2129 190.231 53.2404V59H188.568V52.1544C188.888 52.0353 189.287 51.9253 189.763 51.8245C190.249 51.7146 190.785 51.6596 191.372 51.6596C191.482 51.6596 191.61 51.6687 191.757 51.6871C191.903 51.6962 192.05 51.7146 192.197 51.7421C192.343 51.7604 192.485 51.7879 192.623 51.8245C192.76 51.852 192.87 51.8795 192.953 51.907L192.664 53.3091ZM195.789 59H194.125V51.8108H195.789V59ZM195.967 49.7076C195.967 50.0192 195.867 50.2666 195.665 50.4499C195.463 50.6332 195.225 50.7248 194.95 50.7248C194.666 50.7248 194.423 50.6332 194.222 50.4499C194.02 50.2666 193.919 50.0192 193.919 49.7076C193.919 49.3869 194.02 49.1349 194.222 48.9516C194.423 48.7683 194.666 48.6767 194.95 48.6767C195.225 48.6767 195.463 48.7683 195.665 48.9516C195.867 49.1349 195.967 49.3869 195.967 49.7076ZM202.942 52.9792C202.758 53.1717 202.516 53.442 202.213 53.7902C201.92 54.1385 201.604 54.5279 201.265 54.9586C200.926 55.3802 200.582 55.8247 200.234 56.292C199.895 56.7502 199.588 57.1901 199.313 57.6116H203.024V59H197.306V57.969C197.507 57.6025 197.759 57.2038 198.062 56.7731C198.364 56.3424 198.676 55.9117 198.997 55.481C199.317 55.0411 199.633 54.6242 199.945 54.2301C200.266 53.836 200.55 53.4924 200.797 53.1991H197.484V51.8108H202.942V52.9792ZM206.246 59H204.583V51.8108H206.246V59ZM206.425 49.7076C206.425 50.0192 206.324 50.2666 206.122 50.4499C205.921 50.6332 205.682 50.7248 205.407 50.7248C205.123 50.7248 204.88 50.6332 204.679 50.4499C204.477 50.2666 204.376 50.0192 204.376 49.7076C204.376 49.3869 204.477 49.1349 204.679 48.9516C204.88 48.7683 205.123 48.6767 205.407 48.6767C205.682 48.6767 205.921 48.7683 206.122 48.9516C206.324 49.1349 206.425 49.3869 206.425 49.7076ZM208.368 52.0445C208.689 51.9528 209.106 51.8658 209.619 51.7833C210.132 51.7008 210.7 51.6596 211.323 51.6596C211.91 51.6596 212.4 51.7421 212.794 51.907C213.188 52.0628 213.5 52.2873 213.729 52.5806C213.967 52.8647 214.132 53.2129 214.224 53.6253C214.325 54.0285 214.375 54.473 214.375 54.9586V59H212.712V55.2198C212.712 54.8349 212.684 54.5096 212.629 54.2439C212.583 53.9689 212.501 53.749 212.382 53.584C212.272 53.4099 212.116 53.2862 211.914 53.2129C211.722 53.1304 211.484 53.0892 211.2 53.0892C210.989 53.0892 210.769 53.1029 210.54 53.1304C210.311 53.1579 210.141 53.1808 210.031 53.1991V59H208.368V52.0445ZM217.715 55.2198C217.715 55.9255 217.866 56.4432 218.168 56.7731C218.48 57.0939 218.879 57.2542 219.364 57.2542C219.63 57.2542 219.877 57.2176 220.106 57.1443C220.345 57.071 220.537 56.9839 220.684 56.8831V53.1579C220.565 53.1304 220.418 53.1075 220.244 53.0892C220.07 53.0617 219.85 53.0479 219.584 53.0479C218.979 53.0479 218.517 53.2495 218.196 53.6528C217.875 54.0468 217.715 54.5692 217.715 55.2198ZM222.347 58.2715C222.347 59.417 222.054 60.2555 221.467 60.787C220.89 61.3185 220.001 61.5843 218.801 61.5843C218.361 61.5843 217.93 61.5476 217.508 61.4743C217.096 61.401 216.72 61.3048 216.381 61.1856L216.684 59.7698C216.968 59.8889 217.289 59.9851 217.646 60.0584C218.013 60.1318 218.407 60.1684 218.828 60.1684C219.497 60.1684 219.974 60.031 220.258 59.756C220.542 59.4811 220.684 59.0733 220.684 58.5326V58.2577C220.519 58.3402 220.299 58.4227 220.024 58.5051C219.758 58.5876 219.451 58.6289 219.103 58.6289C218.645 58.6289 218.223 58.5555 217.838 58.4089C217.463 58.2623 217.137 58.0469 216.862 57.7629C216.597 57.4788 216.386 57.1259 216.23 56.7044C216.083 56.2737 216.01 55.7788 216.01 55.2198C216.01 54.6975 216.088 54.2164 216.244 53.7765C216.409 53.3366 216.642 52.9609 216.945 52.6493C217.256 52.3377 217.632 52.0949 218.072 51.9208C218.512 51.7466 219.011 51.6596 219.57 51.6596C220.111 51.6596 220.624 51.7008 221.11 51.7833C221.596 51.8658 222.008 51.9528 222.347 52.0445V58.2715ZM233.857 50.5462C234.004 51.041 234.16 51.5588 234.325 52.0995C234.49 52.631 234.659 53.1671 234.833 53.7078C235.016 54.2393 235.195 54.7662 235.369 55.2886C235.553 55.8017 235.727 56.2874 235.892 56.7456C236.029 56.2508 236.162 55.7147 236.29 55.1373C236.419 54.5508 236.547 53.946 236.675 53.3229C236.803 52.6905 236.927 52.0491 237.046 51.3984C237.175 50.7478 237.294 50.1063 237.404 49.474H239.191C238.87 51.1968 238.513 52.8555 238.118 54.45C237.724 56.0354 237.285 57.5521 236.799 59H235.149C234.435 57.1489 233.743 55.1282 233.074 52.938C232.735 54.0468 232.391 55.1007 232.043 56.0996C231.694 57.0985 231.346 58.0653 230.998 59H229.348C228.854 57.5521 228.409 56.0354 228.015 54.45C227.63 52.8555 227.277 51.1968 226.957 49.474H228.812C228.922 50.0971 229.037 50.734 229.156 51.3847C229.284 52.0353 229.413 52.6768 229.541 53.3091C229.678 53.9323 229.816 54.5371 229.953 55.1236C230.091 55.7101 230.228 56.2508 230.366 56.7456C230.54 56.2783 230.714 55.788 230.888 55.2748C231.071 54.7525 231.25 54.2255 231.424 53.694C231.598 53.1533 231.763 52.6172 231.919 52.0857C232.084 51.5542 232.235 51.041 232.373 50.5462H233.857ZM242.249 59H240.586V51.8108H242.249V59ZM242.428 49.7076C242.428 50.0192 242.327 50.2666 242.125 50.4499C241.924 50.6332 241.685 50.7248 241.41 50.7248C241.126 50.7248 240.883 50.6332 240.682 50.4499C240.48 50.2666 240.379 50.0192 240.379 49.7076C240.379 49.3869 240.48 49.1349 240.682 48.9516C240.883 48.7683 241.126 48.6767 241.41 48.6767C241.685 48.6767 241.924 48.7683 242.125 48.9516C242.327 49.1349 242.428 49.3869 242.428 49.7076ZM244.288 49.9138L245.952 49.6389V51.8108H248.508V53.1991H245.952V56.1271C245.952 56.7044 246.043 57.1168 246.227 57.3642C246.41 57.6116 246.721 57.7354 247.161 57.7354C247.464 57.7354 247.729 57.7033 247.959 57.6391C248.197 57.575 248.385 57.5154 248.522 57.4604L248.797 58.7801C248.605 58.8625 248.353 58.945 248.041 59.0275C247.729 59.1191 247.363 59.165 246.941 59.165C246.428 59.165 245.997 59.0962 245.649 58.9588C245.31 58.8213 245.04 58.6243 244.838 58.3677C244.637 58.1019 244.495 57.7858 244.412 57.4192C244.33 57.0435 244.288 56.6173 244.288 56.1408V49.9138ZM250.116 59V48.608L251.78 48.333V51.8933C251.963 51.8291 252.174 51.7741 252.412 51.7283C252.659 51.6825 252.902 51.6596 253.14 51.6596C253.718 51.6596 254.194 51.7421 254.57 51.907C254.955 52.0628 255.262 52.2873 255.491 52.5806C255.72 52.8647 255.88 53.2083 255.972 53.6115C256.073 54.0147 256.123 54.4638 256.123 54.9586V59H254.46V55.2198C254.46 54.8349 254.433 54.5096 254.378 54.2439C254.332 53.9689 254.249 53.749 254.13 53.584C254.02 53.4099 253.869 53.2862 253.676 53.2129C253.484 53.1304 253.246 53.0892 252.962 53.0892C252.742 53.0892 252.517 53.1121 252.288 53.1579C252.059 53.2037 251.89 53.245 251.78 53.2816V59H250.116ZM146.502 70.9138L148.165 70.6389V72.8108H150.722V74.1991H148.165V77.1271C148.165 77.7044 148.257 78.1168 148.44 78.3642C148.623 78.6116 148.935 78.7354 149.375 78.7354C149.677 78.7354 149.943 78.7033 150.172 78.6391C150.41 78.575 150.598 78.5154 150.736 78.4604L151.01 79.7801C150.818 79.8625 150.566 79.945 150.254 80.0275C149.943 80.1191 149.576 80.165 149.155 80.165C148.642 80.165 148.211 80.0962 147.863 79.9588C147.524 79.8213 147.253 79.6243 147.052 79.3677C146.85 79.1019 146.708 78.7858 146.625 78.4192C146.543 78.0435 146.502 77.6173 146.502 77.1408V70.9138ZM152.33 80V69.608L153.993 69.333V72.8933C154.176 72.8291 154.387 72.7741 154.625 72.7283C154.873 72.6825 155.116 72.6596 155.354 72.6596C155.931 72.6596 156.408 72.7421 156.783 72.907C157.168 73.0628 157.475 73.2873 157.704 73.5806C157.934 73.8647 158.094 74.2083 158.186 74.6115C158.286 75.0147 158.337 75.4638 158.337 75.9586V80H156.673V76.2198C156.673 75.8349 156.646 75.5096 156.591 75.2439C156.545 74.9689 156.463 74.749 156.344 74.584C156.234 74.4099 156.082 74.2862 155.89 74.2129C155.697 74.1304 155.459 74.0892 155.175 74.0892C154.955 74.0892 154.731 74.1121 154.502 74.1579C154.272 74.2037 154.103 74.245 153.993 74.2816V80H152.33ZM159.932 76.4398C159.932 75.8074 160.023 75.253 160.207 74.7765C160.399 74.3 160.651 73.9059 160.963 73.5943C161.274 73.2736 161.632 73.0353 162.035 72.8795C162.438 72.7146 162.85 72.6321 163.272 72.6321C164.262 72.6321 165.032 72.9391 165.581 73.5531C166.14 74.1671 166.42 75.0835 166.42 76.3023C166.42 76.3939 166.415 76.4993 166.406 76.6185C166.406 76.7284 166.402 76.8292 166.392 76.9209H161.65C161.696 77.4982 161.897 77.9472 162.255 78.268C162.621 78.5796 163.148 78.7354 163.836 78.7354C164.239 78.7354 164.605 78.6987 164.935 78.6254C165.274 78.5521 165.54 78.4742 165.733 78.3917L165.953 79.7526C165.861 79.7984 165.733 79.8488 165.568 79.9038C165.412 79.9496 165.229 79.9908 165.018 80.0275C164.816 80.0733 164.596 80.11 164.358 80.1375C164.12 80.165 163.877 80.1787 163.629 80.1787C162.997 80.1787 162.447 80.0871 161.98 79.9038C161.513 79.7113 161.128 79.4502 160.825 79.1202C160.523 78.7812 160.298 78.3871 160.152 77.9381C160.005 77.4799 159.932 76.9804 159.932 76.4398ZM164.757 75.6975C164.757 75.4684 164.725 75.253 164.66 75.0514C164.596 74.8406 164.5 74.6619 164.372 74.5153C164.253 74.3595 164.101 74.2404 163.918 74.1579C163.744 74.0663 163.533 74.0204 163.286 74.0204C163.029 74.0204 162.805 74.0708 162.612 74.1717C162.42 74.2633 162.255 74.387 162.117 74.5428C161.989 74.6986 161.888 74.8773 161.815 75.0789C161.742 75.2805 161.691 75.4867 161.664 75.6975H164.757ZM177.344 70.474H179.076V80H177.344V75.7799H173.206V80H171.474V70.474H173.206V74.2816H177.344V70.474ZM180.873 76.4398C180.873 75.8074 180.965 75.253 181.148 74.7765C181.34 74.3 181.592 73.9059 181.904 73.5943C182.216 73.2736 182.573 73.0353 182.976 72.8795C183.379 72.7146 183.792 72.6321 184.213 72.6321C185.203 72.6321 185.973 72.9391 186.523 73.5531C187.082 74.1671 187.361 75.0835 187.361 76.3023C187.361 76.3939 187.357 76.4993 187.347 76.6185C187.347 76.7284 187.343 76.8292 187.334 76.9209H182.591C182.637 77.4982 182.839 77.9472 183.196 78.268C183.563 78.5796 184.09 78.7354 184.777 78.7354C185.18 78.7354 185.547 78.6987 185.877 78.6254C186.216 78.5521 186.481 78.4742 186.674 78.3917L186.894 79.7526C186.802 79.7984 186.674 79.8488 186.509 79.9038C186.353 79.9496 186.17 79.9908 185.959 80.0275C185.757 80.0733 185.538 80.11 185.299 80.1375C185.061 80.165 184.818 80.1787 184.571 80.1787C183.938 80.1787 183.389 80.0871 182.921 79.9038C182.454 79.7113 182.069 79.4502 181.767 79.1202C181.464 78.7812 181.24 78.3871 181.093 77.9381C180.946 77.4799 180.873 76.9804 180.873 76.4398ZM185.698 75.6975C185.698 75.4684 185.666 75.253 185.602 75.0514C185.538 74.8406 185.441 74.6619 185.313 74.5153C185.194 74.3595 185.043 74.2404 184.859 74.1579C184.685 74.0663 184.475 74.0204 184.227 74.0204C183.97 74.0204 183.746 74.0708 183.554 74.1717C183.361 74.2633 183.196 74.387 183.059 74.5428C182.93 74.6986 182.83 74.8773 182.756 75.0789C182.683 75.2805 182.633 75.4867 182.605 75.6975H185.698ZM191.626 80.1375C191.132 80.1283 190.719 80.0733 190.389 79.9725C190.069 79.8717 189.812 79.7297 189.62 79.5464C189.427 79.3539 189.29 79.1202 189.207 78.8453C189.134 78.5612 189.097 78.2405 189.097 77.8831V69.608L190.76 69.333V77.5669C190.76 77.7686 190.774 77.9381 190.802 78.0755C190.838 78.213 190.898 78.3321 190.98 78.4329C191.063 78.5246 191.173 78.5979 191.31 78.6529C191.457 78.6987 191.64 78.7354 191.86 78.7629L191.626 80.1375ZM197.975 76.4398C197.975 75.6975 197.806 75.1201 197.467 74.7078C197.137 74.2954 196.601 74.0892 195.859 74.0892C195.703 74.0892 195.538 74.0983 195.364 74.1167C195.199 74.1258 195.034 74.1533 194.869 74.1991V78.3092C195.015 78.41 195.208 78.5063 195.446 78.5979C195.694 78.6804 195.955 78.7216 196.23 78.7216C196.835 78.7216 197.274 78.5154 197.549 78.103C197.833 77.6907 197.975 77.1362 197.975 76.4398ZM199.68 76.4123C199.68 76.9621 199.607 77.4661 199.46 77.9243C199.323 78.3825 199.121 78.7766 198.855 79.1065C198.589 79.4364 198.255 79.693 197.852 79.8763C197.458 80.0596 197.009 80.1512 196.505 80.1512C196.166 80.1512 195.854 80.11 195.57 80.0275C195.286 79.945 195.052 79.8534 194.869 79.7526V82.543H193.206V73.0445C193.545 72.9528 193.962 72.8658 194.456 72.7833C194.951 72.7008 195.474 72.6596 196.023 72.6596C196.592 72.6596 197.1 72.7466 197.549 72.9208C197.998 73.0949 198.379 73.3469 198.69 73.6768C199.011 73.9975 199.254 74.3916 199.419 74.859C199.593 75.3172 199.68 75.8349 199.68 76.4123ZM211.104 76.3985C211.104 76.9667 211.022 77.4845 210.857 77.9518C210.692 78.4192 210.458 78.8178 210.156 79.1477C209.853 79.4776 209.487 79.7342 209.056 79.9175C208.635 80.1008 208.167 80.1924 207.654 80.1924C207.141 80.1924 206.674 80.1008 206.252 79.9175C205.83 79.7342 205.468 79.4776 205.166 79.1477C204.864 78.8178 204.625 78.4192 204.451 77.9518C204.286 77.4845 204.204 76.9667 204.204 76.3985C204.204 75.8304 204.286 75.3172 204.451 74.859C204.625 74.3916 204.864 73.993 205.166 73.663C205.478 73.3331 205.844 73.0811 206.266 72.907C206.687 72.7237 207.15 72.6321 207.654 72.6321C208.158 72.6321 208.621 72.7237 209.042 72.907C209.473 73.0811 209.84 73.3331 210.142 73.663C210.445 73.993 210.678 74.3916 210.843 74.859C211.017 75.3172 211.104 75.8304 211.104 76.3985ZM209.4 76.3985C209.4 75.6837 209.244 75.1201 208.932 74.7078C208.63 74.2862 208.204 74.0754 207.654 74.0754C207.104 74.0754 206.674 74.2862 206.362 74.7078C206.06 75.1201 205.908 75.6837 205.908 76.3985C205.908 77.1225 206.06 77.6952 206.362 78.1168C206.674 78.5383 207.104 78.7491 207.654 78.7491C208.204 78.7491 208.63 78.5383 208.932 78.1168C209.244 77.6952 209.4 77.1225 209.4 76.3985ZM215.746 69.333C216.131 69.333 216.47 69.3697 216.763 69.443C217.056 69.5071 217.276 69.5667 217.423 69.6217L217.107 70.9963C216.951 70.923 216.768 70.8634 216.557 70.8176C216.355 70.7718 216.135 70.7489 215.897 70.7489C215.631 70.7489 215.407 70.7901 215.223 70.8726C215.04 70.9459 214.894 71.0513 214.784 71.1888C214.674 71.3262 214.596 71.4957 214.55 71.6974C214.504 71.8898 214.481 72.1006 214.481 72.3297V72.8108H217.093V74.1991H214.481V80H212.818V72.3022C212.818 71.3766 213.061 70.6527 213.546 70.1303C214.032 69.5988 214.765 69.333 215.746 69.333ZM224.059 78.8316C224.572 78.8316 224.962 78.8041 225.228 78.7491V76.9071C225.136 76.8796 225.003 76.8521 224.829 76.8247C224.655 76.7972 224.463 76.7834 224.252 76.7834C224.068 76.7834 223.881 76.7972 223.688 76.8247C223.505 76.8521 223.335 76.9025 223.18 76.9759C223.033 77.0492 222.914 77.1546 222.822 77.292C222.731 77.4203 222.685 77.5853 222.685 77.7869C222.685 78.1809 222.808 78.4559 223.056 78.6116C223.303 78.7583 223.638 78.8316 224.059 78.8316ZM223.922 72.6321C224.472 72.6321 224.934 72.7008 225.31 72.8383C225.686 72.9757 225.984 73.1682 226.204 73.4156C226.433 73.663 226.593 73.9655 226.685 74.3229C226.786 74.6711 226.836 75.056 226.836 75.4775V79.835C226.579 79.89 226.19 79.9542 225.668 80.0275C225.154 80.11 224.572 80.1512 223.922 80.1512C223.491 80.1512 223.097 80.11 222.74 80.0275C222.382 79.945 222.075 79.8121 221.819 79.6289C221.571 79.4456 221.374 79.2073 221.228 78.9141C221.09 78.6208 221.021 78.2588 221.021 77.8281C221.021 77.4157 221.099 77.0675 221.255 76.7834C221.42 76.4993 221.64 76.2702 221.915 76.0961C222.19 75.9128 222.506 75.7845 222.863 75.7112C223.23 75.6287 223.61 75.5875 224.004 75.5875C224.188 75.5875 224.38 75.6012 224.582 75.6287C224.783 75.6471 224.999 75.6837 225.228 75.7387V75.4638C225.228 75.2713 225.205 75.0881 225.159 74.9139C225.113 74.7398 225.031 74.5886 224.912 74.4603C224.802 74.3229 224.65 74.2175 224.458 74.1442C224.275 74.0709 224.041 74.0342 223.757 74.0342C223.372 74.0342 223.019 74.0617 222.698 74.1167C222.378 74.1717 222.117 74.2358 221.915 74.3091L221.709 72.962C221.919 72.8887 222.226 72.8154 222.63 72.7421C223.033 72.6687 223.464 72.6321 223.922 72.6321ZM228.873 73.0445C229.194 72.9528 229.611 72.8658 230.124 72.7833C230.637 72.7008 231.205 72.6596 231.828 72.6596C232.415 72.6596 232.905 72.7421 233.299 72.907C233.693 73.0628 234.005 73.2873 234.234 73.5806C234.472 73.8647 234.637 74.2129 234.729 74.6253C234.83 75.0285 234.88 75.473 234.88 75.9586V80H233.217V76.2198C233.217 75.8349 233.189 75.5096 233.134 75.2439C233.088 74.9689 233.006 74.749 232.887 74.584C232.777 74.4099 232.621 74.2862 232.419 74.2129C232.227 74.1304 231.989 74.0892 231.705 74.0892C231.494 74.0892 231.274 74.1029 231.045 74.1304C230.816 74.1579 230.646 74.1808 230.536 74.1991V80H228.873V73.0445ZM246.528 80C246.4 79.6243 246.267 79.2531 246.129 78.8866C245.992 78.52 245.859 78.1443 245.731 77.7594H241.717C241.588 78.1443 241.456 78.5246 241.318 78.9003C241.19 79.2669 241.061 79.6334 240.933 80H239.132C239.49 78.9828 239.829 78.0435 240.15 77.1821C240.47 76.3206 240.782 75.505 241.084 74.7352C241.396 73.9655 241.703 73.2323 242.005 72.5359C242.308 71.8394 242.619 71.1521 242.94 70.474H244.576C244.897 71.1521 245.208 71.8394 245.511 72.5359C245.813 73.2323 246.115 73.9655 246.418 74.7352C246.729 75.505 247.046 76.3206 247.366 77.1821C247.696 78.0435 248.04 78.9828 248.397 80H246.528ZM243.724 72.3159C243.513 72.8016 243.27 73.3927 242.995 74.0892C242.729 74.7856 242.45 75.5417 242.157 76.3573H245.291C244.997 75.5417 244.713 74.7811 244.438 74.0754C244.164 73.3698 243.925 72.7833 243.724 72.3159ZM249.601 70.474H251.333V80H249.601V70.474ZM164.581 99.7079C165.205 99.7079 165.658 99.6025 165.942 99.3917C166.226 99.1809 166.368 98.8831 166.368 98.4982C166.368 98.2691 166.318 98.0721 166.217 97.9071C166.126 97.7422 165.988 97.5955 165.805 97.4673C165.631 97.3298 165.415 97.2061 165.159 97.0961C164.902 96.977 164.609 96.8624 164.279 96.7525C163.949 96.6333 163.628 96.505 163.317 96.3676C163.014 96.2209 162.744 96.0422 162.506 95.8315C162.277 95.6207 162.089 95.3687 161.942 95.0754C161.805 94.7822 161.736 94.4294 161.736 94.017C161.736 93.1556 162.034 92.482 162.629 91.9963C163.225 91.5014 164.036 91.254 165.062 91.254C165.658 91.254 166.185 91.3227 166.643 91.4602C167.111 91.5885 167.477 91.7305 167.743 91.8863L167.207 93.2884C166.895 93.1143 166.552 92.9814 166.176 92.8898C165.809 92.7982 165.429 92.7523 165.035 92.7523C164.568 92.7523 164.201 92.8486 163.935 93.041C163.679 93.2335 163.55 93.5038 163.55 93.852C163.55 94.0628 163.592 94.2461 163.674 94.4019C163.766 94.5485 163.889 94.6814 164.045 94.8005C164.21 94.9196 164.398 95.0296 164.609 95.1304C164.829 95.2312 165.067 95.3274 165.324 95.4191C165.773 95.584 166.171 95.7536 166.52 95.9277C166.877 96.0926 167.175 96.2943 167.413 96.5325C167.661 96.7616 167.848 97.0365 167.977 97.3573C168.105 97.6689 168.169 98.0492 168.169 98.4982C168.169 99.3596 167.862 100.029 167.248 100.505C166.643 100.973 165.754 101.206 164.581 101.206C164.187 101.206 163.825 101.179 163.495 101.124C163.175 101.078 162.886 101.018 162.629 100.945C162.382 100.872 162.167 100.798 161.983 100.725C161.8 100.643 161.653 100.569 161.543 100.505L162.052 99.0893C162.3 99.2268 162.634 99.3642 163.056 99.5017C163.477 99.6391 163.986 99.7079 164.581 99.7079ZM175.51 100.78C175.189 100.863 174.772 100.945 174.259 101.027C173.746 101.119 173.182 101.165 172.568 101.165C171.991 101.165 171.505 101.082 171.111 100.918C170.726 100.753 170.415 100.523 170.177 100.23C169.947 99.937 169.783 99.5887 169.682 99.1855C169.581 98.7731 169.531 98.3241 169.531 97.8384V93.8108H171.194V97.5772C171.194 98.347 171.304 98.8968 171.524 99.2268C171.753 99.5567 172.147 99.7216 172.706 99.7216C172.907 99.7216 173.118 99.7124 173.338 99.6941C173.567 99.6758 173.737 99.6529 173.847 99.6254V93.8108H175.51V100.78ZM181.723 97.2198C181.723 96.4684 181.627 95.9277 181.435 95.5978C181.251 95.2587 180.903 95.0892 180.39 95.0892C180.207 95.0892 180.005 95.1029 179.785 95.1304C179.565 95.1579 179.4 95.1808 179.29 95.1991V101H177.627V94.0445C177.948 93.9528 178.365 93.8658 178.878 93.7833C179.4 93.7008 179.95 93.6596 180.528 93.6596C181.022 93.6596 181.426 93.7237 181.737 93.852C182.058 93.9803 182.324 94.1499 182.534 94.3606C182.635 94.2873 182.764 94.2094 182.919 94.127C183.075 94.0445 183.249 93.9712 183.442 93.907C183.634 93.8337 183.836 93.7741 184.047 93.7283C184.266 93.6825 184.486 93.6596 184.706 93.6596C185.265 93.6596 185.724 93.7421 186.081 93.907C186.447 94.0628 186.732 94.2873 186.933 94.5806C187.144 94.8647 187.286 95.2129 187.359 95.6253C187.442 96.0285 187.483 96.473 187.483 96.9586V101H185.82V97.2198C185.82 96.4684 185.728 95.9277 185.545 95.5978C185.362 95.2587 185.009 95.0892 184.486 95.0892C184.221 95.0892 183.969 95.135 183.73 95.2266C183.492 95.3091 183.313 95.3916 183.194 95.4741C183.268 95.7032 183.318 95.946 183.345 96.2026C183.373 96.4592 183.387 96.7341 183.387 97.0274V101H181.723V97.2198ZM193.617 97.2198C193.617 96.4684 193.521 95.9277 193.328 95.5978C193.145 95.2587 192.797 95.0892 192.284 95.0892C192.1 95.0892 191.899 95.1029 191.679 95.1304C191.459 95.1579 191.294 95.1808 191.184 95.1991V101H189.521V94.0445C189.841 93.9528 190.258 93.8658 190.772 93.7833C191.294 93.7008 191.844 93.6596 192.421 93.6596C192.916 93.6596 193.319 93.7237 193.631 93.852C193.951 93.9803 194.217 94.1499 194.428 94.3606C194.529 94.2873 194.657 94.2094 194.813 94.127C194.969 94.0445 195.143 93.9712 195.335 93.907C195.528 93.8337 195.729 93.7741 195.94 93.7283C196.16 93.6825 196.38 93.6596 196.6 93.6596C197.159 93.6596 197.617 93.7421 197.975 93.907C198.341 94.0628 198.625 94.2873 198.827 94.5806C199.038 94.8647 199.18 95.2129 199.253 95.6253C199.335 96.0285 199.377 96.473 199.377 96.9586V101H197.713V97.2198C197.713 96.4684 197.622 95.9277 197.438 95.5978C197.255 95.2587 196.902 95.0892 196.38 95.0892C196.114 95.0892 195.862 95.135 195.624 95.2266C195.386 95.3091 195.207 95.3916 195.088 95.4741C195.161 95.7032 195.212 95.946 195.239 96.2026C195.267 96.4592 195.28 96.7341 195.28 97.0274V101H193.617V97.2198ZM203.944 99.8316C204.457 99.8316 204.846 99.8041 205.112 99.7491V97.9071C205.02 97.8796 204.887 97.8521 204.713 97.8247C204.539 97.7972 204.347 97.7834 204.136 97.7834C203.953 97.7834 203.765 97.7972 203.572 97.8247C203.389 97.8521 203.22 97.9025 203.064 97.9759C202.917 98.0492 202.798 98.1546 202.706 98.292C202.615 98.4203 202.569 98.5853 202.569 98.7869C202.569 99.1809 202.693 99.4559 202.94 99.6116C203.188 99.7583 203.522 99.8316 203.944 99.8316ZM203.806 93.6321C204.356 93.6321 204.819 93.7008 205.194 93.8383C205.57 93.9757 205.868 94.1682 206.088 94.4156C206.317 94.663 206.477 94.9655 206.569 95.3229C206.67 95.6711 206.72 96.056 206.72 96.4775V100.835C206.464 100.89 206.074 100.954 205.552 101.027C205.039 101.11 204.457 101.151 203.806 101.151C203.375 101.151 202.981 101.11 202.624 101.027C202.267 100.945 201.96 100.812 201.703 100.629C201.456 100.446 201.258 100.207 201.112 99.9141C200.974 99.6208 200.906 99.2588 200.906 98.8281C200.906 98.4157 200.984 98.0675 201.139 97.7834C201.304 97.4993 201.524 97.2702 201.799 97.0961C202.074 96.9128 202.39 96.7845 202.748 96.7112C203.114 96.6287 203.495 96.5875 203.889 96.5875C204.072 96.5875 204.264 96.6012 204.466 96.6287C204.668 96.6471 204.883 96.6837 205.112 96.7387V96.4638C205.112 96.2713 205.089 96.0881 205.043 95.9139C204.997 95.7398 204.915 95.5886 204.796 95.4603C204.686 95.3229 204.535 95.2175 204.342 95.1442C204.159 95.0709 203.925 95.0342 203.641 95.0342C203.256 95.0342 202.903 95.0617 202.583 95.1167C202.262 95.1717 202.001 95.2358 201.799 95.3091L201.593 93.962C201.804 93.8887 202.111 93.8154 202.514 93.7421C202.917 93.6687 203.348 93.6321 203.806 93.6321ZM212.853 95.3091C212.716 95.2633 212.524 95.2175 212.276 95.1717C212.038 95.1167 211.758 95.0892 211.438 95.0892C211.254 95.0892 211.057 95.1075 210.847 95.1442C210.645 95.1808 210.503 95.2129 210.42 95.2404V101H208.757V94.1544C209.078 94.0353 209.477 93.9253 209.953 93.8245C210.439 93.7146 210.975 93.6596 211.561 93.6596C211.671 93.6596 211.8 93.6687 211.946 93.6871C212.093 93.6962 212.239 93.7146 212.386 93.7421C212.533 93.7604 212.675 93.7879 212.812 93.8245C212.95 93.852 213.06 93.8795 213.142 93.907L212.853 95.3091ZM215.978 101H214.315V93.8108H215.978V101ZM216.157 91.7076C216.157 92.0192 216.056 92.2666 215.855 92.4499C215.653 92.6332 215.415 92.7248 215.14 92.7248C214.856 92.7248 214.613 92.6332 214.411 92.4499C214.21 92.2666 214.109 92.0192 214.109 91.7076C214.109 91.3869 214.21 91.1349 214.411 90.9516C214.613 90.7683 214.856 90.6767 215.14 90.6767C215.415 90.6767 215.653 90.7683 215.855 90.9516C216.056 91.1349 216.157 91.3869 216.157 91.7076ZM223.131 94.9792C222.948 95.1717 222.705 95.442 222.403 95.7902C222.109 96.1385 221.793 96.5279 221.454 96.9586C221.115 97.3802 220.772 97.8247 220.423 98.292C220.084 98.7502 219.777 99.1901 219.502 99.6116H223.214V101H217.495V99.969C217.697 99.6025 217.949 99.2038 218.251 98.7731C218.554 98.3424 218.865 97.9117 219.186 97.481C219.507 97.0411 219.823 96.6242 220.135 96.2301C220.455 95.836 220.739 95.4924 220.987 95.1991H217.674V93.8108H223.131V94.9792ZM224.132 97.4398C224.132 96.8074 224.223 96.253 224.407 95.7765C224.599 95.3 224.851 94.9059 225.163 94.5943C225.474 94.2736 225.832 94.0353 226.235 93.8795C226.638 93.7146 227.05 93.6321 227.472 93.6321C228.462 93.6321 229.231 93.9391 229.781 94.5531C230.34 95.1671 230.62 96.0835 230.62 97.3023C230.62 97.3939 230.615 97.4993 230.606 97.6185C230.606 97.7284 230.601 97.8292 230.592 97.9209H225.85C225.896 98.4982 226.097 98.9472 226.455 99.268C226.821 99.5796 227.348 99.7354 228.036 99.7354C228.439 99.7354 228.805 99.6987 229.135 99.6254C229.474 99.5521 229.74 99.4742 229.932 99.3917L230.152 100.753C230.061 100.798 229.932 100.849 229.768 100.904C229.612 100.95 229.428 100.991 229.218 101.027C229.016 101.073 228.796 101.11 228.558 101.137C228.32 101.165 228.077 101.179 227.829 101.179C227.197 101.179 226.647 101.087 226.18 100.904C225.712 100.711 225.328 100.45 225.025 100.12C224.723 99.7812 224.498 99.3871 224.352 98.9381C224.205 98.4799 224.132 97.9804 224.132 97.4398ZM228.957 96.6975C228.957 96.4684 228.924 96.253 228.86 96.0514C228.796 95.8406 228.7 95.6619 228.572 95.5153C228.452 95.3595 228.301 95.2404 228.118 95.1579C227.944 95.0663 227.733 95.0204 227.486 95.0204C227.229 95.0204 227.005 95.0708 226.812 95.1717C226.62 95.2633 226.455 95.387 226.317 95.5428C226.189 95.6986 226.088 95.8773 226.015 96.0789C225.942 96.2805 225.891 96.4867 225.864 96.6975H228.957ZM236.48 95.3091C236.342 95.2633 236.15 95.2175 235.902 95.1717C235.664 95.1167 235.384 95.0892 235.064 95.0892C234.88 95.0892 234.683 95.1075 234.473 95.1442C234.271 95.1808 234.129 95.2129 234.047 95.2404V101H232.383V94.1544C232.704 94.0353 233.103 93.9253 233.579 93.8245C234.065 93.7146 234.601 93.6596 235.187 93.6596C235.297 93.6596 235.426 93.6687 235.572 93.6871C235.719 93.6962 235.866 93.7146 236.012 93.7421C236.159 93.7604 236.301 93.7879 236.438 93.8245C236.576 93.852 236.686 93.8795 236.768 93.907L236.48 95.3091Z" fill="black"/>
<path d="M219.505 18.0482H189.089C187.492 18.0482 186.193 16.7505 186.193 15.1542C186.193 13.5579 187.492 12.2601 189.089 12.2601H219.505C221.102 12.2601 222.402 13.5579 222.402 15.1542C222.402 16.7505 221.102 18.0482 219.505 18.0482ZM189.089 13.1468C187.981 13.1468 187.08 14.0469 187.08 15.1542C187.08 16.2615 187.981 17.1615 189.089 17.1615H219.505C220.613 17.1615 221.514 16.2615 221.514 15.1542C221.514 14.0469 220.613 13.1468 219.505 13.1468H189.089Z" fill="#05ADA3"/>
<path d="M65.0364 184.511V184.537C65.0364 195.341 73.7975 204.106 84.6133 204.12L113.454 204.156L127.577 213.716L123.153 203.428C131.376 201.105 137.404 193.559 137.416 184.602V184.58C137.416 173.773 128.658 165.005 117.836 164.991L84.6635 164.95C73.8387 164.936 65.0485 173.694 65.0364 184.511Z" fill="#B3E9E9"/>
<path d="M87.6926 187.69V183.268L90.9429 182.704C91.1639 181.925 91.4764 181.176 91.8763 180.47L89.9733 177.769L93.103 174.642L95.8228 176.554C96.6014 176.121 97.4334 175.792 98.2994 175.576L98.8209 172.578H103.247L103.791 175.712C104.488 175.924 105.161 176.21 105.797 176.567L108.534 174.641L111.664 177.768L109.738 180.501C110.128 181.194 110.434 181.93 110.651 182.695L113.945 183.267V187.689L110.666 188.258C110.451 189.032 110.146 189.776 109.754 190.476L111.664 193.188L108.534 196.314L105.838 194.417C105.187 194.786 104.498 195.081 103.781 195.298L103.246 198.377H98.8199L98.3084 195.433C97.4233 195.213 96.5743 194.876 95.7816 194.429L93.103 196.313L89.9733 193.187L91.8612 190.508C91.4593 189.796 91.1468 189.038 90.9288 188.25L87.6926 187.69ZM100.798 189.835C103.188 189.835 105.132 187.892 105.132 185.504C105.132 183.116 103.188 181.174 100.798 181.174C98.4079 181.174 96.4638 183.116 96.4638 185.504C96.4638 187.892 98.4089 189.835 100.798 189.835Z" fill="#6CBCBC"/>
<path d="M365.764 134.179V134.201C365.764 142.955 358.665 150.057 349.901 150.068L326.534 150.097L315.091 157.842L318.675 149.506C312.012 147.624 307.129 141.51 307.119 134.254V134.236C307.119 125.481 314.215 118.376 322.983 118.365L349.86 118.331C358.632 118.32 365.754 125.415 365.764 134.179Z" fill="#15BAAA"/>
<path d="M323.867 135.146C323.582 133.829 324.42 132.529 325.739 132.244C327.058 131.959 328.359 132.796 328.644 134.114C328.93 135.432 328.092 136.731 326.773 137.016C325.454 137.302 324.153 136.464 323.867 135.146Z" fill="white"/>
<path d="M335.423 137.066C334.074 137.066 332.98 135.972 332.98 134.624C332.98 133.276 334.074 132.182 335.423 132.182C336.773 132.182 337.867 133.276 337.867 134.624C337.867 135.972 336.773 137.066 335.423 137.066Z" fill="white"/>
<path d="M343.376 136.71C342.205 136.039 341.8 134.547 342.472 133.378C343.144 132.208 344.637 131.804 345.808 132.475C346.978 133.146 347.383 134.638 346.711 135.807C346.04 136.977 344.546 137.381 343.376 136.71Z" fill="white"/>
<g clip-path="url(#clip0_1704_1152)">
<path d="M328.947 238.792H279.771C262.751 238.792 248.962 225.027 248.962 208.062V195.329C248.962 178.363 262.762 164.598 279.771 164.598H328.936C345.956 164.598 359.744 178.363 359.744 195.329V208.062C359.755 225.039 345.956 238.792 328.947 238.792Z" fill="url(#paint0_linear_1704_1152)"/>
<path d="M304.359 354.223C277.619 354.223 254.345 322.53 254.345 295.858V281.583C254.345 262.704 269.691 247.385 288.629 247.385H320.111C339.038 247.385 354.396 262.693 354.396 281.583V292.658C354.372 321.092 332.865 354.223 304.359 354.223Z" fill="url(#paint1_linear_1704_1152)"/>
<path d="M304.359 354.223C277.619 354.223 254.345 322.53 254.345 295.858V281.583C254.345 262.704 269.691 247.385 288.629 247.385H320.111C339.038 247.385 354.396 262.693 354.396 281.583V292.658C354.372 321.092 332.865 354.223 304.359 354.223Z" fill="url(#paint2_linear_1704_1152)"/>
<path d="M304.359 354.223C277.619 354.223 254.345 322.53 254.345 295.858V281.583C254.345 262.704 269.691 247.385 288.629 247.385H320.111C339.038 247.385 354.396 262.693 354.396 281.583V292.658C354.372 321.092 332.865 354.223 304.359 354.223Z" fill="url(#paint3_linear_1704_1152)"/>
<path d="M304.359 354.223C277.619 354.223 254.345 322.53 254.345 295.858V281.583C254.345 262.704 269.691 247.385 288.629 247.385H320.111C339.038 247.385 354.396 262.693 354.396 281.583V292.658C354.372 321.092 332.865 354.223 304.359 354.223Z" fill="url(#paint4_linear_1704_1152)"/>
<path d="M288.617 247.385C288.094 247.385 287.583 247.397 287.059 247.42C283.269 248.023 280.933 248.823 280.933 249.693C280.933 251.56 291.419 253.079 304.358 253.079C317.298 253.079 327.784 251.56 327.784 249.693C327.784 248.812 325.447 248.023 321.657 247.42C321.146 247.397 320.623 247.385 320.1 247.385H288.617Z" fill="url(#paint5_linear_1704_1152)"/>
<path d="M321.821 284.331C310.044 309.264 290.71 327.528 260.472 321.034C269.121 339.148 285.92 354.235 304.359 354.235C332.865 354.235 354.373 321.104 354.373 292.669V281.595C354.373 275.298 352.652 269.395 349.676 264.328C342.224 263.713 330.389 266.171 321.821 284.331Z" fill="url(#paint6_linear_1704_1152)"/>
<path d="M359.755 201.695C359.755 196.894 360.441 192.325 358.779 188.116C344.386 193.624 295.767 207.725 249.811 188.255C248.183 192.43 248.974 196.952 248.974 201.695V208.398C248.974 225.178 262.611 238.792 279.445 238.792H322.576C342.212 239.662 350.85 231.997 356.163 222.511C361.266 213.408 359.93 203.319 359.93 203.319C359.93 203.168 359.755 201.858 359.755 201.695Z" fill="url(#paint7_linear_1704_1152)"/>
<path d="M334.807 216.701H273.911C267.029 216.701 261.448 211.135 261.448 204.27V199.121C261.448 192.256 267.029 186.689 273.911 186.689H334.807C341.689 186.689 347.269 192.256 347.269 199.121V204.27C347.269 211.135 341.689 216.701 334.807 216.701Z" fill="url(#paint8_linear_1704_1152)"/>
<ellipse cx="284.992" cy="202.138" rx="6.73794" ry="6.73794" fill="white"/>
<ellipse cx="324.457" cy="202.138" rx="6.73794" ry="6.73794" fill="white"/>
<path d="M246.846 217.211C250.988 217.211 254.345 210.265 254.345 201.695C254.345 193.126 250.988 186.179 246.846 186.179C242.705 186.179 239.348 193.126 239.348 201.695C239.348 210.265 242.705 217.211 246.846 217.211Z" fill="url(#paint9_radial_1704_1152)"/>
<path d="M246.846 217.211C250.988 217.211 254.345 210.265 254.345 201.695C254.345 193.126 250.988 186.179 246.846 186.179C242.705 186.179 239.348 193.126 239.348 201.695C239.348 210.265 242.705 217.211 246.846 217.211Z" fill="url(#paint10_linear_1704_1152)"/>
<path d="M240.406 212.109C243.956 212.109 246.835 207.447 246.835 201.695C246.835 195.944 243.956 191.282 240.406 191.282C236.855 191.282 233.977 195.944 233.977 201.695C233.977 207.447 236.855 212.109 240.406 212.109Z" fill="url(#paint11_radial_1704_1152)"/>
<path d="M240.406 212.109C243.956 212.109 246.835 207.447 246.835 201.695C246.835 195.944 243.956 191.282 240.406 191.282C236.855 191.282 233.977 195.944 233.977 201.695C233.977 207.447 236.855 212.109 240.406 212.109Z" fill="url(#paint12_linear_1704_1152)"/>
<path d="M361.871 217.211C366.013 217.211 369.37 210.265 369.37 201.695C369.37 193.126 366.013 186.179 361.871 186.179C357.73 186.179 354.373 193.126 354.373 201.695C354.373 210.265 357.73 217.211 361.871 217.211Z" fill="url(#paint13_radial_1704_1152)"/>
<path d="M361.871 217.211C366.013 217.211 369.37 210.265 369.37 201.695C369.37 193.126 366.013 186.179 361.871 186.179C357.73 186.179 354.373 193.126 354.373 201.695C354.373 210.265 357.73 217.211 361.871 217.211Z" fill="url(#paint14_linear_1704_1152)"/>
<path d="M368.3 212.109C371.851 212.109 374.729 207.447 374.729 201.695C374.729 195.944 371.851 191.282 368.3 191.282C364.749 191.282 361.871 195.944 361.871 201.695C361.871 207.447 364.749 212.109 368.3 212.109Z" fill="url(#paint15_radial_1704_1152)"/>
<path d="M368.3 212.109C371.851 212.109 374.729 207.447 374.729 201.695C374.729 195.944 371.851 191.282 368.3 191.282C364.749 191.282 361.871 195.944 361.871 201.695C361.871 207.447 364.749 212.109 368.3 212.109Z" fill="url(#paint16_linear_1704_1152)"/>
<path d="M378.577 320.35C380.426 319.202 380.577 317.961 379.961 317.08L354.442 277.2C354.14 276.771 352.71 277.408 351.815 277.977C350.92 278.533 349.559 279.426 349.815 279.878L374.543 320.489C375.089 321.417 376.729 321.498 378.577 320.35Z" fill="url(#paint17_linear_1704_1152)"/>
<path opacity="0.6" d="M363.601 260.039C363.947 248.99 355.248 239.754 344.171 239.409C333.095 239.064 323.835 247.741 323.489 258.79C323.144 269.839 331.843 279.075 342.919 279.42C353.996 279.765 363.255 271.088 363.601 260.039Z" fill="white"/>
<path d="M321.332 244.011C329.866 231.776 346.723 228.75 358.988 237.262C371.253 245.773 374.287 262.588 365.754 274.822C357.221 287.057 340.364 290.083 328.099 281.572C315.833 273.071 312.799 256.257 321.332 244.011ZM332.098 275.854C341.201 282.163 353.698 279.925 360.023 270.845C366.347 261.765 364.103 249.299 355 242.99C345.897 236.682 333.4 238.92 327.075 248C320.751 257.068 322.995 269.546 332.098 275.854Z" fill="url(#paint18_linear_1704_1152)"/>
</g>
<defs>
<linearGradient id="paint0_linear_1704_1152" x1="248.956" y1="201.694" x2="359.724" y2="201.694" gradientUnits="userSpaceOnUse">
<stop offset="0.2574" stop-color="#D7F4F2"/>
<stop offset="0.9979" stop-color="#97DDD9"/>
</linearGradient>
<linearGradient id="paint1_linear_1704_1152" x1="254.339" y1="300.803" x2="354.377" y2="300.803" gradientUnits="userSpaceOnUse">
<stop offset="0.2574" stop-color="#D7F4F2"/>
<stop offset="0.9979" stop-color="#97DDD9"/>
</linearGradient>
<linearGradient id="paint2_linear_1704_1152" x1="254.339" y1="300.803" x2="354.377" y2="300.803" gradientUnits="userSpaceOnUse">
<stop offset="0.2574" stop-color="#D7F4F2"/>
<stop offset="0.9979" stop-color="#97DDD9"/>
</linearGradient>
<linearGradient id="paint3_linear_1704_1152" x1="254.339" y1="300.803" x2="354.377" y2="300.803" gradientUnits="userSpaceOnUse">
<stop offset="0.2574" stop-color="#D7F4F2"/>
<stop offset="0.9979" stop-color="#97DDD9"/>
</linearGradient>
<linearGradient id="paint4_linear_1704_1152" x1="254.339" y1="300.803" x2="354.377" y2="300.803" gradientUnits="userSpaceOnUse">
<stop offset="0.2574" stop-color="#D7F4F2"/>
<stop offset="0.9979" stop-color="#97DDD9"/>
</linearGradient>
<linearGradient id="paint5_linear_1704_1152" x1="309.829" y1="244.792" x2="279.569" y2="335.121" gradientUnits="userSpaceOnUse">
<stop offset="0.2574" stop-color="#D7F4F2"/>
<stop offset="0.55393" stop-color="#BDEBE8"/>
<stop offset="0.9979" stop-color="#97DDD9"/>
</linearGradient>
<linearGradient id="paint6_linear_1704_1152" x1="260.466" y1="309.239" x2="361.769" y2="380.738" gradientUnits="userSpaceOnUse">
<stop offset="0.2574" stop-color="#D7F4F2"/>
<stop offset="0.9979" stop-color="#97DDD9"/>
</linearGradient>
<linearGradient id="paint7_linear_1704_1152" x1="341.896" y1="185.175" x2="260.771" y2="250.38" gradientUnits="userSpaceOnUse">
<stop offset="0.2574" stop-color="#D7F4F2"/>
<stop offset="0.9979" stop-color="#97DDD9"/>
</linearGradient>
<linearGradient id="paint8_linear_1704_1152" x1="304.359" y1="186.689" x2="304.359" y2="216.701" gradientUnits="userSpaceOnUse">
<stop stop-color="#24C7BD"/>
<stop offset="1" stop-color="#046761"/>
</linearGradient>
<radialGradient id="paint9_radial_1704_1152" cx="0" cy="0" r="1" gradientUnits="userSpaceOnUse" gradientTransform="translate(238.396 201.061) scale(15.0827 21.2282)">
<stop offset="0.2082" stop-color="#87C2D6"/>
<stop offset="0.4299" stop-color="#8CC3D7"/>
<stop offset="0.7044" stop-color="#9CC7D8"/>
<stop offset="1" stop-color="#B4CCDB"/>
</radialGradient>
<linearGradient id="paint10_linear_1704_1152" x1="251.894" y1="184.381" x2="234.449" y2="187.47" gradientUnits="userSpaceOnUse">
<stop offset="0.2574" stop-color="#D7F4F2"/>
<stop offset="0.9979" stop-color="#97DDD9"/>
</linearGradient>
<radialGradient id="paint11_radial_1704_1152" cx="0" cy="0" r="1" gradientUnits="userSpaceOnUse" gradientTransform="translate(234.676 201.444) scale(11.6742 18.4046)">
<stop stop-color="#87C2D6"/>
<stop offset="0.5584" stop-color="#9EC7D9"/>
<stop offset="1" stop-color="#B4CCDB"/>
</radialGradient>
<linearGradient id="paint12_linear_1704_1152" x1="244.733" y1="190.075" x2="230.058" y2="193.394" gradientUnits="userSpaceOnUse">
<stop offset="0.2574" stop-color="#D7F4F2"/>
<stop offset="0.9979" stop-color="#97DDD9"/>
</linearGradient>
<radialGradient id="paint13_radial_1704_1152" cx="0" cy="0" r="1" gradientUnits="userSpaceOnUse" gradientTransform="translate(368.188 201.077) scale(12.2126 17.3883)">
<stop stop-color="#87C2D6"/>
<stop offset="0.5584" stop-color="#9EC7D9"/>
<stop offset="1" stop-color="#B4CCDB"/>
</radialGradient>
<linearGradient id="paint14_linear_1704_1152" x1="366.919" y1="184.381" x2="349.474" y2="187.47" gradientUnits="userSpaceOnUse">
<stop offset="0.2574" stop-color="#D7F4F2"/>
<stop offset="0.9979" stop-color="#97DDD9"/>
</linearGradient>
<radialGradient id="paint15_radial_1704_1152" cx="0" cy="0" r="1" gradientUnits="userSpaceOnUse" gradientTransform="translate(377.087 201.479) scale(11.9673 11.9371)">
<stop stop-color="#87C2D6"/>
<stop offset="0.5584" stop-color="#9EC7D9"/>
<stop offset="1" stop-color="#B4CCDB"/>
</radialGradient>
<linearGradient id="paint16_linear_1704_1152" x1="372.628" y1="190.075" x2="357.953" y2="193.394" gradientUnits="userSpaceOnUse">
<stop offset="0.2574" stop-color="#D7F4F2"/>
<stop offset="0.9979" stop-color="#97DDD9"/>
</linearGradient>
<linearGradient id="paint17_linear_1704_1152" x1="365.035" y1="277.059" x2="365.035" y2="321.198" gradientUnits="userSpaceOnUse">
<stop stop-color="#24C7BD"/>
<stop offset="1" stop-color="#046761"/>
</linearGradient>
<linearGradient id="paint18_linear_1704_1152" x1="343.543" y1="232.428" x2="343.543" y2="286.405" gradientUnits="userSpaceOnUse">
<stop stop-color="#24C7BD"/>
<stop offset="1" stop-color="#046761"/>
</linearGradient>
<clipPath id="clip0_1704_1152">
<rect width="146.31" height="189.625" fill="white" transform="translate(233.977 164.598)"/>
</clipPath>
</defs>
</svg>
